<svg xmlns="http://www.w3.org/2000/svg" width="1em" height="1em" viewBox="0 0 128 128"><path fill="#539e43" d="M66.958.825a6.07 6.07 0 0 0-6.035 0L11.103 29.76c-1.895 1.072-2.96 3.095-2.96 5.24v57.988c0 2.143 1.183 4.167 2.958 5.24l49.82 28.934a6.07 6.07 0 0 0 6.036 0l49.82-28.935c1.894-1.072 2.958-3.096 2.958-5.24V35c0-2.144-1.183-4.167-2.958-5.24z"></path><path fill="#fff" d="M64 106.32c-.882 0-1.704-.238-2.467-.655l-7.834-4.65c-1.18-.654-.59-.892-.235-1.01c1.59-.535 1.886-.654 3.535-1.605c.177-.119.413-.06.59.06l6.005 3.58c.236.12.531.12.708 0l23.485-13.583c.236-.119.354-.357.354-.654V60.65c0-.298-.118-.536-.354-.655L64.353 46.413c-.236-.119-.53-.119-.707 0L40.16 59.995c-.236.119-.354.416-.354.654v27.165c0 .238.118.535.354.654l6.42 3.71c3.477 1.78 5.658-.298 5.658-2.378V62.59c0-.357.295-.714.708-.714h2.98c.354 0 .708.298.708.714v27.225c0 4.65-2.535 7.327-6.953 7.327c-1.357 0-2.418 0-5.423-1.486l-6.184-3.566a4.98 4.98 0 0 1-2.467-4.305V60.65a4.98 4.98 0 0 1 2.467-4.305l23.485-13.584c1.475-.833 3.477-.833 4.94 0L83.07 56.345a4.98 4.98 0 0 1 2.467 4.305v27.165a4.98 4.98 0 0 1-2.467 4.305L59.585 105.72c-.766.417-1.588.6-2.47.6z"></path><path fill="#539e43" d="M71.301 87.69c-10.27 0-12.418-4.71-12.418-8.673c0-.357.295-.714.708-.714h3.04c.354 0 .649.238.649.595c.472 3.094 1.829 4.65 8.08 4.65c4.95 0 7.07-1.13 7.07-3.804c0-1.546-.59-2.677-8.316-3.447c-6.42-.654-10.42-2.08-10.42-7.207c0-4.769 4-7.624 10.715-7.624c7.539 0 11.244 2.617 11.716 8.316c0 .178-.06.357-.177.535c-.118.119-.295.238-.472.238h-3.063c-.295 0-.59-.238-.649-.535c-.708-3.21-2.537-4.264-7.362-4.264c-5.423 0-6.07 1.903-6.07 3.328c0 1.724.767 2.26 8.08 3.21c7.244.95 10.656 2.319 10.656 7.387c-.06 5.184-4.301 8.137-11.776 8.137z"></path></svg>