<svg xmlns="http://www.w3.org/2000/svg" width="1em" height="1em" viewBox="0 0 128 128"><path fill="#777bb3" d="M64 95.167c33.965 0 61.5-13.955 61.5-31.167c0-17.214-27.535-31.167-61.5-31.167S2.5 46.786 2.5 64c0 17.212 27.535 31.167 61.5 31.167" opacity=".5"></path><path fill="#777bb3" d="M64 95.167c33.965 0 61.5-13.955 61.5-31.167c0-17.214-27.535-31.167-61.5-31.167S2.5 46.786 2.5 64c0 17.212 27.535 31.167 61.5 31.167"></path><path fill="#fff" d="M34.19 55.826h3.891c3.107 0 4.186.682 4.553 1.089c.607.674.723 2.097.331 4.112c-.439 2.257-1.253 3.858-2.42 4.756c-1.194.92-3.138 1.386-5.773 1.386h-2.786zm6.674-8.1H26.731a1.39 1.39 0 0 0-1.364 1.123L18.81 82.588a1.39 1.39 0 0 0 1.363 1.653h7.35a1.39 1.39 0 0 0 1.363-1.124l1.525-7.846h5.151c2.912 0 5.364-.318 7.287-.944c1.977-.642 3.796-1.731 5.406-3.237a16.5 16.5 0 0 0 3.259-4.087c.831-1.487 1.429-3.147 1.775-4.931c.86-4.423.161-7.964-2.076-10.524c-2.216-2.537-5.698-3.823-10.349-3.823zM65.31 38.755h-7.291a1.39 1.39 0 0 0-1.364 1.124l-6.557 33.738a1.39 1.39 0 0 0 1.363 1.654h7.291a1.39 1.39 0 0 0 1.364-1.124l3.537-18.205h4.682c2.168 0 2.624.463 2.641.484c.132.14.305.795.019 2.264l-2.9 14.927a1.39 1.39 0 0 0 1.364 1.654h7.408a1.39 1.39 0 0 0 1.363-1.124l3.051-15.7c.715-3.686.103-6.45-1.82-8.217c-1.836-1.686-4.91-2.505-9.398-2.505h-4.81l1.421-7.315a1.39 1.39 0 0 0-1.364-1.655M91.555 55.826h3.891c3.107 0 4.186.682 4.552 1.089c.61.674.724 2.097.333 4.112c-.44 2.257-1.254 3.858-2.421 4.756c-1.195.92-3.139 1.386-5.773 1.386h-2.786zm6.674-8.1H84.096a1.39 1.39 0 0 0-1.363 1.123l-6.558 33.739a1.39 1.39 0 0 0 1.364 1.653h7.35a1.39 1.39 0 0 0 1.363-1.124l1.525-7.846h5.15c2.911 0 5.364-.318 7.286-.944c1.978-.642 3.797-1.731 5.408-3.238a16.5 16.5 0 0 0 3.258-4.086c.832-1.487 1.428-3.147 1.775-4.931c.86-4.423.162-7.964-2.076-10.524c-2.216-2.537-5.697-3.823-10.35-3.823z"></path></svg>