<svg xmlns="http://www.w3.org/2000/svg" width="1em" height="1em" viewBox="0 0 128 128"><path fill="#0065a9" d="M123.471 13.82L97.097 1.12A7.97 7.97 0 0 0 88 2.668L1.662 81.387a5.333 5.333 0 0 0 .006 7.887l7.052 6.411a5.33 5.33 0 0 0 6.811.303l103.971-78.875c3.488-2.646 8.498-.158 8.498 4.22v-.306a8 8 0 0 0-4.529-7.208Z"></path><path fill="#007acc" d="m123.471 114.181l-26.374 12.698A7.97 7.97 0 0 1 88 125.333L1.662 46.613a5.333 5.333 0 0 1 .006-7.887l7.052-6.411a5.33 5.33 0 0 1 6.811-.303l103.971 78.874c3.488 2.647 8.498.159 8.498-4.219v.306a8 8 0 0 1-4.529 7.208"></path><path fill="#1f9cf0" d="M97.097 126.882A7.98 7.98 0 0 1 88 125.333c2.952 2.952 8 .861 8-3.314V5.98c0-4.175-5.048-6.266-8-3.313a7.98 7.98 0 0 1 9.098-1.549L123.467 13.8A8 8 0 0 1 128 21.01v85.982a8 8 0 0 1-4.533 7.21z"></path></svg>